<svg version="1.1" viewBox="0.0 0.0 1280.0 960.0" fill="none" stroke="none" stroke-linecap="square" stroke-miterlimit="10" xmlns:xlink="http://www.w3.org/1999/xlink" xmlns="http://www.w3.org/2000/svg"><clipPath id="p.0"><path d="m0 0l1280.0 0l0 960.0l-1280.0 0l0 -960.0z" clip-rule="nonzero"/></clipPath><g clip-path="url(#p.0)"><path fill="#000000" fill-opacity="0.0" d="m0 0l1280.0 0l0 960.0l-1280.0 0z" fill-rule="evenodd"/><path fill="#000000" fill-opacity="0.0" d="m0.84987926 559.6952l-0.8505529 -515.7473l196.06453 -39.672337l193.51067 42.37822l196.9173 -42.37822l0 510.33557l-194.36124 44.18213l-196.06673 -39.672302z" fill-rule="evenodd"/><path stroke="#1e5881" stroke-width="4.0" stroke-linejoin="round" stroke-linecap="butt" d="m0.84987926 559.6952l-0.8505529 -515.7473l196.06453 -39.672337l193.51067 42.37822l196.9173 -42.37822l0 510.33557l-194.36124 44.18213l-196.06673 -39.672302z" fill-rule="evenodd"/><path fill="#000000" fill-opacity="0.0" d="m196.06386 4.2755165l0 515.7357" fill-rule="evenodd"/><path stroke="#1e5881" stroke-width="4.0" stroke-linejoin="round" stroke-linecap="butt" stroke-dasharray="4.0,12.0" d="m196.06386 4.2755165l0 515.7357" fill-rule="evenodd"/><path fill="#000000" fill-opacity="0.0" d="m391.03607 45.751774l0 515.7357" fill-rule="evenodd"/><path stroke="#1e5881" stroke-width="4.0" stroke-linejoin="round" stroke-linecap="butt" stroke-dasharray="4.0,12.0" d="m391.03607 45.751774l0 515.7357" fill-rule="evenodd"/><path fill="#ff9900" d="m223.28871 289.4882l0 0c0 -38.799088 32.588028 -70.25197 72.7874 -70.25197l0 0c19.304413 0 37.818176 7.40152 51.468475 20.576324c13.650269 13.174805 21.31894 31.043655 21.31894 49.675644l0 0c0 38.799103 -32.588043 70.25195 -72.787415 70.25195l0 0c-40.19937 0 -72.7874 -31.45285 -72.7874 -70.25195z" fill-rule="evenodd"/><path fill="#000000" fill-opacity="0.0" d="m184.60104 287.44882l0 0c0 -60.725235 49.453156 -109.95276 110.456696 -109.95276l0 0c29.294952 0 57.390045 11.584274 78.104675 32.204422c20.71466 20.620132 32.35202 48.58705 32.35202 77.74834l0 0c0 60.72522 -49.453156 109.95276 -110.456696 109.95276l0 0c-61.00354 0 -110.456696 -49.22754 -110.456696 -109.95276z" fill-rule="evenodd"/><path stroke="#2c7eb9" stroke-width="24.0" stroke-linejoin="round" stroke-linecap="butt" d="m184.60104 287.44882l0 0c0 -60.725235 49.453156 -109.95276 110.456696 -109.95276l0 0c29.294952 0 57.390045 11.584274 78.104675 32.204422c20.71466 20.620132 32.35202 48.58705 32.35202 77.74834l0 0c0 60.72522 -49.453156 109.95276 -110.456696 109.95276l0 0c-61.00354 0 -110.456696 -49.22754 -110.456696 -109.95276z" fill-rule="evenodd"/><path fill="#ff9900" d="m71.60105 364.8058l0 0c0 -13.489685 10.484291 -24.425201 23.41732 -24.425201l0 0c6.210663 0 12.166946 2.5733643 16.558548 7.153961c4.3916016 4.5806274 6.8587723 10.793274 6.8587723 17.27124l0 0c0 13.489655 -10.484291 24.42517 -23.41732 24.42517l0 0c-12.933029 0 -23.41732 -10.935516 -23.41732 -24.42517z" fill-rule="evenodd"/><path fill="#000000" fill-opacity="0.0" d="m47.175854 364.8058l0 0c0 -24.735413 21.419827 -44.787415 47.842518 -44.787415l0 0c26.422691 0 47.842514 20.052002 47.842514 44.787415l0 0c0 24.735382 -21.419823 44.787384 -47.842514 44.787384l0 0c-26.422691 0 -47.842518 -20.052002 -47.842518 -44.787384z" fill-rule="evenodd"/><path stroke="#2c7eb9" stroke-width="16.0" stroke-linejoin="round" stroke-linecap="butt" d="m47.175854 364.8058l0 0c0 -24.735413 21.419827 -44.787415 47.842518 -44.787415l0 0c26.422691 0 47.842514 20.052002 47.842514 44.787415l0 0c0 24.735382 -21.419823 44.787384 -47.842514 44.787384l0 0c-26.422691 0 -47.842518 -20.052002 -47.842518 -44.787384z" fill-rule="evenodd"/><path fill="#000000" fill-opacity="0.0" d="m137.78346 349.02625l51.905518 -19.338593" fill-rule="evenodd"/><path stroke="#2c7eb9" stroke-width="16.0" stroke-linejoin="round" stroke-linecap="butt" d="m137.78346 349.02625l51.905518 -19.338593" fill-rule="evenodd"/><path fill="#ff9900" d="m424.56693 140.55118l0 0c0 -13.489662 10.484283 -24.425194 23.417328 -24.425194l0 0c6.210663 0 12.166962 2.5733643 16.558533 7.1539764c4.3916016 4.580612 6.858795 10.793251 6.858795 17.271217l0 0c0 13.48967 -10.484283 24.425201 -23.417328 24.425201l0 0c-12.933044 0 -23.417328 -10.935532 -23.417328 -24.425201z" fill-rule="evenodd"/><path fill="#000000" fill-opacity="0.0" d="m400.14172 140.55118l0 0c0 -24.735397 21.41983 -44.7874 47.84253 -44.7874l0 0c26.422699 0 47.84253 20.052002 47.84253 44.7874l0 0c0 24.735397 -21.41983 44.7874 -47.84253 44.7874l0 0c-26.422699 0 -47.84253 -20.052002 -47.84253 -44.7874z" fill-rule="evenodd"/><path stroke="#2c7eb9" stroke-width="16.0" stroke-linejoin="round" stroke-linecap="butt" d="m400.14172 140.55118l0 0c0 -24.735397 21.41983 -44.7874 47.84253 -44.7874l0 0c26.422699 0 47.84253 20.052002 47.84253 44.7874l0 0c0 24.735397 -21.41983 44.7874 -47.84253 44.7874l0 0c-26.422699 0 -47.84253 -20.052002 -47.84253 -44.7874z" fill-rule="evenodd"/><path fill="#000000" fill-opacity="0.0" d="m438.08923 359.4672l0 0c0 -16.446777 12.923828 -29.779541 28.86615 -29.779541l0 0c7.6557617 0 14.997986 3.1374817 20.411438 8.722229c5.413452 5.5847473 8.454712 13.159302 8.454712 21.057312l0 0c0 16.446777 -12.923828 29.77951 -28.86615 29.77951l0 0c-15.942322 0 -28.86615 -13.332733 -28.86615 -29.77951z" fill-rule="evenodd"/><path stroke="#2c7eb9" stroke-width="8.0" stroke-linejoin="round" stroke-linecap="butt" d="m438.08923 359.4672l0 0c0 -16.446777 12.923828 -29.779541 28.86615 -29.779541l0 0c7.6557617 0 14.997986 3.1374817 20.411438 8.722229c5.413452 5.5847473 8.454712 13.159302 8.454712 21.057312l0 0c0 16.446777 -12.923828 29.77951 -28.86615 29.77951l0 0c-15.942322 0 -28.86615 -13.332733 -28.86615 -29.77951z" fill-rule="evenodd"/><path fill="#000000" fill-opacity="0.0" d="m396.02362 325.11023l41.7323 20.346466" fill-rule="evenodd"/><path stroke="#2c7eb9" stroke-width="8.0" stroke-linejoin="round" stroke-linecap="butt" d="m396.02362 325.11023l41.7323 20.346466" fill-rule="evenodd"/><path fill="#000000" fill-opacity="0.0" d="m372.67416 204.6616l41.480316 -32.44095" fill-rule="evenodd"/><path stroke="#2c7eb9" stroke-width="16.0" stroke-linejoin="round" stroke-linecap="butt" d="m372.67416 204.6616l41.480316 -32.44095" fill-rule="evenodd"/></g></svg>